<?xml version="1.0" encoding="UTF-8" standalone="no"?>
<svg
   version="1.1"
   id="svg2"
   xml:space="preserve"
   width="12cm"
   height="7.5cm"
   viewBox="0 0 453.54332 283.46457"
   sodipodi:docname="models.svg"
   inkscape:version="1.3.2 (1:1.3.2+202311252150+091e20ef0f)"
   xmlns:inkscape="http://www.inkscape.org/namespaces/inkscape"
   xmlns:sodipodi="http://sodipodi.sourceforge.net/DTD/sodipodi-0.dtd"
   xmlns="http://www.w3.org/2000/svg"
   xmlns:svg="http://www.w3.org/2000/svg"
   xmlns:rdf="http://www.w3.org/1999/02/22-rdf-syntax-ns#"
   xmlns:cc="http://creativecommons.org/ns#"
   xmlns:dc="http://purl.org/dc/elements/1.1/"><metadata
     id="metadata8"><rdf:RDF><cc:Work
         rdf:about=""><dc:format>image/svg+xml</dc:format><dc:type
           rdf:resource="http://purl.org/dc/dcmitype/StillImage" /></cc:Work></rdf:RDF></metadata><defs
     id="defs6" /><sodipodi:namedview
     pagecolor="#ffffff"
     bordercolor="#666666"
     borderopacity="1"
     objecttolerance="10"
     gridtolerance="10"
     guidetolerance="10"
     inkscape:pageopacity="0"
     inkscape:pageshadow="2"
     inkscape:window-width="1920"
     inkscape:window-height="1126"
     id="namedview4"
     showgrid="false"
     inkscape:zoom="1.4188281"
     inkscape:cx="332.66891"
     inkscape:cy="132.50372"
     inkscape:window-x="0"
     inkscape:window-y="50"
     inkscape:window-maximized="1"
     inkscape:current-layer="g10"
     inkscape:document-rotation="0"
     units="cm"
     inkscape:showpageshadow="2"
     inkscape:pagecheckerboard="0"
     inkscape:deskcolor="#d1d1d1"
     inkscape:document-units="cm" /><g
     id="g10"
     inkscape:groupmode="layer"
     inkscape:label="models"
     transform="matrix(1.3333333,0,0,-1.3333333,0,264.56693)"><g
       id="g1086"
       transform="matrix(0.94176931,0,0,0.94176931,-249.41941,17.905185)"><g
         id="g14"
         transform="matrix(1,0,0,-1,19.242342,173.09306)"><path
           d="m 269.902,48.816 c 74.211,-0.156 138.59,64.129 137.547,148.618"
           style="fill:none;stroke:#000000;stroke-width:0.782567;stroke-linecap:butt;stroke-linejoin:miter;stroke-miterlimit:4;stroke-dasharray:none;stroke-opacity:1"
           id="path16" /></g><g
         id="g18"
         transform="matrix(1,0,0,-1,19.242342,173.09306)"><path
           d="M 268.914,192.293 V 19.766"
           style="fill:none;stroke:#000000;stroke-width:1.01734;stroke-linecap:butt;stroke-linejoin:miter;stroke-miterlimit:4;stroke-dasharray:none;stroke-opacity:1"
           id="path20" /></g><g
         id="g22"
         transform="matrix(0,-1,-1,0,19.242342,173.09306)"><path
           d="m 23.836,-268.914 2.031,-2.035 -7.121,2.035 7.121,2.035 z"
           style="fill:#000000;fill-opacity:1;fill-rule:evenodd;stroke:#000000;stroke-width:0.508669;stroke-linecap:butt;stroke-linejoin:miter;stroke-miterlimit:4;stroke-dasharray:none;stroke-opacity:1"
           id="path24" /></g><g
         id="g26"
         transform="matrix(1,0,0,-1,19.242342,173.09306)"><path
           d="m 270.051,127.258 c 13.531,4.336 23.285,8.277 34.781,20.554"
           style="fill:none;stroke:#000000;stroke-width:0.782567;stroke-linecap:butt;stroke-linejoin:miter;stroke-miterlimit:4;stroke-dasharray:none;stroke-opacity:1"
           id="path28" /></g><g
         id="g30"
         transform="matrix(1,-0.320418,-0.320418,-1,19.242342,173.09306)"><path
           d="m 284.867,36.938 1.491,-1.489 -5.218,1.488 5.217,1.493 z"
           style="fill:#000000;fill-opacity:1;fill-rule:evenodd;stroke:#000000;stroke-width:0.372623;stroke-linecap:butt;stroke-linejoin:miter;stroke-miterlimit:4;stroke-dasharray:none;stroke-opacity:1"
           id="path32" /></g><g
         id="g34"
         transform="matrix(-0.936407,1,1,0.936407,19.242342,173.09306)"><path
           d="m -228.559,88.671 1.142,-1.145 -3.997,1.144 3.998,1.141 z"
           style="fill:#000000;fill-opacity:1;fill-rule:evenodd;stroke:#000000;stroke-width:0.285612;stroke-linecap:butt;stroke-linejoin:miter;stroke-miterlimit:4;stroke-dasharray:none;stroke-opacity:1"
           id="path36" /></g><g
         id="g38"
         transform="matrix(0.980559,-0.8994,-0.877734,-1,19.242342,173.09306)"><path
           d="m 270.964,-101.369 c 3.089,7.589 -5.194,15.171 -18.508,16.943 -13.313,1.771 -26.629,-2.94 -29.753,-10.525 -3.127,-7.587 5.12,-15.179 18.426,-16.971 13.307,-1.793 26.645,2.899 29.805,10.479"
           style="fill:none;stroke:#000000;stroke-width:0.615686;stroke-linecap:butt;stroke-linejoin:miter;stroke-miterlimit:4;stroke-dasharray:none;stroke-opacity:1"
           id="path40" /></g><g
         id="g42"
         transform="matrix(0.980559,-0.8994,-0.877734,-1,19.242342,173.09306)"><path
           d="m 232.234,-99.457 c 0.413,1.019 -0.696,2.036 -2.482,2.275 -1.788,0.241 -3.577,-0.392 -4.001,-1.409 -0.425,-1.017 0.677,-2.038 2.461,-2.284 1.786,-0.243 3.58,0.382 4.015,1.397"
           style="fill:none;stroke:#000000;stroke-width:0.377046;stroke-linecap:butt;stroke-linejoin:miter;stroke-miterlimit:4;stroke-dasharray:none;stroke-opacity:1"
           id="path44" /></g><g
         id="g46"
         transform="matrix(0.980559,-0.8994,-0.877734,-1,19.242342,173.09306)"><path
           d="m 237.281,-105.946 c 0.416,1.021 -0.696,2.04 -2.482,2.279 -1.788,0.237 -3.577,-0.392 -4.001,-1.408 -0.427,-1.02 0.675,-2.041 2.461,-2.284 1.784,-0.246 3.58,0.377 4.015,1.396"
           style="fill:none;stroke:#000000;stroke-width:0.377046;stroke-linecap:butt;stroke-linejoin:miter;stroke-miterlimit:4;stroke-dasharray:none;stroke-opacity:1"
           id="path48" /></g><g
         id="g50"
         transform="matrix(0.980559,-0.8994,-0.877734,-1,19.242342,173.09306)"><path
           d="m 246.277,-108.619 c 0.418,1.019 -0.693,2.038 -2.481,2.275 -1.788,0.241 -3.576,-0.39 -4.002,-1.409 -0.424,-1.017 0.677,-2.039 2.461,-2.284 1.787,-0.243 3.581,0.382 4.015,1.397"
           style="fill:none;stroke:#000000;stroke-width:0.377046;stroke-linecap:butt;stroke-linejoin:miter;stroke-miterlimit:4;stroke-dasharray:none;stroke-opacity:1"
           id="path52" /></g><g
         id="g54"
         transform="matrix(0.980559,-0.8994,-0.877734,-1,19.242342,173.09306)"><path
           d="m 256.496,-108.271 c 0.414,1.019 -0.695,2.036 -2.483,2.277 -1.788,0.237 -3.578,-0.392 -4,-1.411 -0.426,-1.019 0.675,-2.041 2.461,-2.284 1.785,-0.245 3.579,0.38 4.013,1.399"
           style="fill:none;stroke:#000000;stroke-width:0.377046;stroke-linecap:butt;stroke-linejoin:miter;stroke-miterlimit:4;stroke-dasharray:none;stroke-opacity:1"
           id="path56" /></g><g
         id="g58"
         transform="matrix(0.980559,-0.8994,-0.877734,-1,19.242342,173.09306)"><path
           d="m 264.269,-104.274 c 0.416,1.021 -0.693,2.038 -2.479,2.277 -1.79,0.239 -3.578,-0.392 -4.002,-1.408 -0.426,-1.02 0.675,-2.041 2.461,-2.284 1.784,-0.246 3.579,0.379 4.015,1.396"
           style="fill:none;stroke:#000000;stroke-width:0.377046;stroke-linecap:butt;stroke-linejoin:miter;stroke-miterlimit:4;stroke-dasharray:none;stroke-opacity:1"
           id="path60" /></g><g
         id="g62"
         transform="matrix(0.980559,-0.8994,-0.877734,-1,19.242342,173.09306)"><path
           d="m 266.575,-97.426 c 0.414,1.019 -0.698,2.038 -2.484,2.277 -1.787,0.237 -3.577,-0.392 -4.001,-1.408 -0.424,-1.022 0.675,-2.041 2.461,-2.284 1.784,-0.246 3.582,0.379 4.015,1.396"
           style="fill:none;stroke:#000000;stroke-width:0.377046;stroke-linecap:butt;stroke-linejoin:miter;stroke-miterlimit:4;stroke-dasharray:none;stroke-opacity:1"
           id="path64" /></g><g
         id="g66"
         transform="matrix(0.980559,-0.8994,-0.877734,-1,19.242342,173.09306)"><path
           d="m 258.319,-90.039 c 0.414,1.018 -0.697,2.037 -2.483,2.276 -1.79,0.239 -3.578,-0.392 -4.002,-1.408 -0.426,-1.019 0.675,-2.041 2.461,-2.284 1.784,-0.246 3.58,0.381 4.015,1.396"
           style="fill:none;stroke:#000000;stroke-width:0.377046;stroke-linecap:butt;stroke-linejoin:miter;stroke-miterlimit:4;stroke-dasharray:none;stroke-opacity:1"
           id="path68" /></g><g
         id="g70"
         transform="matrix(0.980559,-0.8994,-0.877734,-1,19.242342,173.09306)"><path
           d="m 247.01,-89.532 c 0.414,1.019 -0.696,2.036 -2.481,2.275 -1.789,0.241 -3.578,-0.392 -4.002,-1.409 -0.424,-1.017 0.677,-2.038 2.461,-2.284 1.786,-0.243 3.58,0.382 4.015,1.397"
           style="fill:none;stroke:#000000;stroke-width:0.377046;stroke-linecap:butt;stroke-linejoin:miter;stroke-miterlimit:4;stroke-dasharray:none;stroke-opacity:1"
           id="path72" /></g><g
         id="g74"
         transform="matrix(0.980559,-0.8994,-0.877734,-1,19.242342,173.09306)"><path
           d="m 236.913,-92.369 c 0.418,1.019 -0.693,2.038 -2.481,2.275 -1.788,0.241 -3.576,-0.39 -4.002,-1.409 -0.424,-1.017 0.677,-2.038 2.461,-2.284 1.786,-0.243 3.581,0.382 4.015,1.397"
           style="fill:none;stroke:#000000;stroke-width:0.377046;stroke-linecap:butt;stroke-linejoin:miter;stroke-miterlimit:4;stroke-dasharray:none;stroke-opacity:1"
           id="path76" /></g><g
         id="g78"
         transform="matrix(0.980559,-0.8994,-0.877734,-1,19.242342,173.09306)"><path
           d="m 243.463,-100.068 c 0.415,1.021 -0.694,2.038 -2.482,2.279 -1.788,0.237 -3.575,-0.394 -4,-1.411 -0.426,-1.019 0.675,-2.04 2.462,-2.284 1.784,-0.245 3.578,0.38 4.015,1.397"
           style="fill:none;stroke:#000000;stroke-width:0.377046;stroke-linecap:butt;stroke-linejoin:miter;stroke-miterlimit:4;stroke-dasharray:none;stroke-opacity:1"
           id="path80" /></g><g
         id="g82"
         transform="matrix(0.980559,-0.8994,-0.877734,-1,19.242342,173.09306)"><path
           d="m 256.516,-99.558 c 0.415,1.021 -0.696,2.04 -2.482,2.279 -1.788,0.237 -3.578,-0.392 -4.002,-1.409 -0.424,-1.021 0.675,-2.04 2.461,-2.284 1.785,-0.245 3.581,0.378 4.015,1.397"
           style="fill:none;stroke:#000000;stroke-width:0.377046;stroke-linecap:butt;stroke-linejoin:miter;stroke-miterlimit:4;stroke-dasharray:none;stroke-opacity:1"
           id="path84" /></g><g
         id="g86"
         transform="matrix(1,0,0,-1,19.242342,173.09306)"><path
           d="M 331.164,120.691 402.508,38.477"
           style="fill:none;stroke:#000000;stroke-width:1.01734;stroke-linecap:butt;stroke-linejoin:miter;stroke-miterlimit:4;stroke-dasharray:none;stroke-opacity:1"
           id="path88" /></g><g
         id="g90"
         transform="matrix(-0.867789,-1,-1,0.867789,19.242342,173.09306)"><path
           d="m -174.227,-248.652 1.538,-1.537 -5.38,1.539 5.38,1.535 z"
           style="fill:#000000;fill-opacity:1;fill-rule:evenodd;stroke:#000000;stroke-width:0.384182;stroke-linecap:butt;stroke-linejoin:miter;stroke-miterlimit:4;stroke-dasharray:none;stroke-opacity:1"
           id="path92" /></g><g
         id="g94"
         transform="matrix(1,0,0,-1,19.242342,173.09306)"><path
           d="M 268.766,192.566 315.602,138.02"
           style="fill:none;stroke:#000000;stroke-width:1.01734;stroke-linecap:butt;stroke-linejoin:miter;stroke-miterlimit:4;stroke-dasharray:none;stroke-opacity:1"
           id="path96" /></g><g
         id="g98"
         transform="matrix(0.980559,-0.8994,-0.877734,-1,19.242342,173.09306)"><path
           d="m 258.089,-106.434 c 5.979,2.736 8.154,7.365 5.375,11.439 -2.779,4.074 -9.87,6.651 -17.523,6.366 -7.652,-0.285 -14.101,-3.364 -15.926,-7.61 -1.827,-4.244 1.383,-8.673 7.939,-10.944"
           style="fill:none;stroke:#ff0000;stroke-width:0.823501;stroke-linecap:butt;stroke-linejoin:miter;stroke-miterlimit:4;stroke-dasharray:none;stroke-opacity:1"
           id="path100" /></g><g
         id="g102"
         transform="matrix(-0.979455,0.421495,0.410113,1,19.242342,173.09306)"><path
           d="m -318.067,28.954 2.042,-2.04 -7.147,2.039 7.149,2.042 z"
           style="fill:#ff0000;fill-opacity:1;fill-rule:evenodd;stroke:#ff0000;stroke-width:0.51031;stroke-linecap:butt;stroke-linejoin:miter;stroke-miterlimit:4;stroke-dasharray:none;stroke-opacity:1"
           id="path104" /></g><g
         id="g106"
         transform="matrix(0.980559,-0.8994,-0.877734,-1,19.242342,173.09306)"><path
           d="m 252.165,-102.477 c 2.478,1.365 3.064,3.502 1.433,5.231 -1.628,1.729 -5.075,2.631 -8.441,2.209 -3.361,-0.422 -5.823,-2.068 -6.023,-4.028 -0.201,-1.96 1.906,-3.758 5.16,-4.399"
           style="fill:none;stroke:#ff0000;stroke-width:0.823501;stroke-linecap:butt;stroke-linejoin:miter;stroke-miterlimit:4;stroke-dasharray:none;stroke-opacity:1"
           id="path108" /></g><g
         id="g110"
         transform="matrix(-0.979858,0.595799,0.580667,1,19.242342,173.09306)"><path
           d="m -296.285,62.542 1.905,-1.905 -6.662,1.903 6.661,1.903 z"
           style="fill:#ff0000;fill-opacity:1;fill-rule:evenodd;stroke:#ff0000;stroke-width:0.475749;stroke-linecap:butt;stroke-linejoin:miter;stroke-miterlimit:4;stroke-dasharray:none;stroke-opacity:1"
           id="path112" /></g><path
         d="m 282.92635,150.61686 h -0.356 c -0.074,-0.356 -0.129,-0.68 -0.258,-1.024 -0.07,-0.226 -0.113,-0.34 -0.937,-0.34 h -1.121 c 0.183,0.797 0.625,1.465 1.25,2.403 0.668,0.992 1.25,1.972 1.25,3.093 0,1.961 -1.903,3.54 -4.305,3.54 -2.43,0 -4.305,-1.606 -4.305,-3.54 0,-1.121 0.582,-2.101 1.25,-3.093 0.614,-0.938 1.067,-1.606 1.25,-2.403 h -1.136 c -0.809,0 -0.852,0.114 -0.922,0.328 -0.114,0.325 -0.184,0.696 -0.254,1.036 h -0.356 l 0.469,-2.286 h 2.258 c 0.312,0 0.355,0 0.355,0.297 0,0.996 -0.441,2.231 -0.769,3.141 -0.297,0.809 -0.695,1.93 -0.695,2.996 0,2.246 1.562,3.211 2.839,3.211 1.368,0 2.856,-1.008 2.856,-3.211 0,-1.066 -0.367,-2.129 -0.781,-3.297 -0.211,-0.594 -0.668,-1.859 -0.668,-2.84 0,-0.297 0.043,-0.297 0.371,-0.297 h 2.246 z"
         style="fill:#000000;fill-opacity:1;fill-rule:evenodd;stroke:none"
         id="path114" /><path
         d="m 312.49235,44.233857 v 0.195 l -0.016,0.098 v 0.101 l -0.027,0.18 -0.016,0.168 -0.039,0.168 -0.031,0.168 -0.039,0.141 -0.059,0.152 -0.054,0.125 -0.055,0.141 -0.059,0.113 -0.066,0.109 -0.086,0.113 -0.07,0.098 -0.082,0.098 -0.086,0.082 -0.082,0.07 -0.086,0.086 -0.098,0.07 -0.082,0.055 -0.195,0.109 -0.195,0.086 -0.114,0.028 -0.195,0.054 -0.195,0.032 -0.098,0.011 h -0.098 l -0.097,0.016 c -1.914,0 -3.746,-2 -3.746,-3.957 0,-1.285 0.839,-2.332 2.25,-2.332 l 0.027,0.293 c -0.824,0 -1.242,0.629 -1.242,1.523 0,0.672 0.363,2.18 0.797,2.879 0.656,1.02 1.41,1.285 1.898,1.285 1.371,0 1.371,-1.816 1.371,-2.906 0,-0.515 0,-1.312 0.027,-1.551 -1.214,-1.078 -2.292,-1.23 -2.851,-1.23 l -0.027,-0.293 c 0.878,0 1.871,0.309 2.933,1.16 0.184,-0.742 0.645,-1.16 1.274,-1.16 0.726,0 1.16,0.754 1.16,0.977 0,0.097 -0.086,0.14 -0.168,0.14 -0.098,0 -0.141,-0.043 -0.184,-0.14 -0.25,-0.684 -0.738,-0.684 -0.769,-0.684 -0.43,0 -0.43,1.09 -0.43,1.426 0,0.293 0,0.32 0.137,0.476 1.301,1.649 1.593,3.254 1.593,3.27 0,0.027 -0.011,0.137 -0.168,0.137 -0.14,0 -0.14,-0.04 -0.207,-0.293 -0.253,-0.864 -0.699,-1.926 -1.355,-2.75 z"
         style="fill:#000000;fill-opacity:1;fill-rule:evenodd;stroke:none"
         id="path116" /><path
         d="m 427.16435,131.71786 v 0.028 l 0.016,0.027 0.011,0.027 v 0.039 l 0.012,0.028 v 0.027 l 0.016,0.066 0.027,0.067 0.023,0.133 0.016,0.062 0.012,0.027 v 0.04 l 0.011,0.027 0.016,0.027 v 0.055 l 0.012,0.023 v 0.028 l 0.015,0.015 v 0.051 l 0.012,0.016 v 0.039 c 0,0.226 -0.16,0.355 -0.383,0.355 -0.043,0 -0.414,-0.011 -0.531,-0.476 l -1.898,-7.625 c -0.039,-0.16 -0.039,-0.188 -0.039,-0.215 0,-0.199 0.144,-0.356 0.371,-0.356 0.277,0 0.437,0.239 0.464,0.278 0.051,0.117 0.227,0.797 0.715,2.824 0.426,-0.356 1.024,-0.399 1.289,-0.399 0.926,0 1.43,0.586 1.75,0.958 0.118,-0.598 0.61,-0.958 1.196,-0.958 0.461,0 0.754,0.293 0.965,0.719 0.226,0.477 0.398,1.285 0.398,1.313 0,0.133 -0.117,0.133 -0.156,0.133 -0.133,0 -0.149,-0.067 -0.188,-0.239 -0.211,-0.863 -0.449,-1.644 -0.996,-1.644 -0.355,0 -0.398,0.343 -0.398,0.609 0,0.293 0.16,0.914 0.265,1.367 l 0.371,1.43 c 0.043,0.199 0.176,0.691 0.227,0.891 0.066,0.304 0.199,0.808 0.199,0.886 0,0.243 -0.183,0.36 -0.383,0.36 -0.066,0 -0.414,-0.012 -0.519,-0.465 l -0.621,-2.465 c -0.16,-0.664 -0.305,-1.207 -0.348,-1.34 -0.012,-0.066 -0.648,-1.273 -1.711,-1.273 -0.664,0 -0.98,0.437 -0.98,1.152 0,0.387 0.093,0.742 0.187,1.113 z"
         style="fill:#000000;fill-opacity:1;fill-rule:evenodd;stroke:none"
         id="path118" /><g
         id="g226"
         transform="matrix(1,0,0,-1,19.242342,173.09306)"><path
           d="m 377.598,105.449 c -36.293,53.137 -80.528,48.5 -115.809,50.989"
           style="fill:none;stroke:#000000;stroke-width:0.782567;stroke-linecap:butt;stroke-linejoin:miter;stroke-miterlimit:4;stroke-dasharray:3.13027, 1.56514;stroke-dashoffset:0;stroke-opacity:1"
           id="path228" /></g><g
         id="g230"
         transform="matrix(1,0.0705382,0.0705382,-1,19.242342,173.09306)"><path
           d="m 252.634,174.039 1.563,-1.562 -5.465,1.56 5.464,1.561 z"
           style="fill:#000000;fill-opacity:1;fill-rule:evenodd;stroke:#000000;stroke-width:0.390314;stroke-linecap:butt;stroke-linejoin:miter;stroke-miterlimit:4;stroke-dasharray:none;stroke-opacity:1"
           id="path232" /></g></g><g
       id="g1027"
       transform="matrix(0.93224439,0,0,0.93224439,151.34111,-8.7175215)"><g
         id="g120"
         transform="matrix(1,0,0,-1,-9.9580182,199.01017)"><path
           d="m 60.457,48.785 c 74.215,-0.156 138.594,64.125 137.551,148.613"
           style="fill:none;stroke:#000000;stroke-width:0.782567;stroke-linecap:butt;stroke-linejoin:miter;stroke-miterlimit:4;stroke-dasharray:none;stroke-opacity:1"
           id="path122" /></g><g
         id="g124"
         transform="matrix(1,0,0,-1,-9.9580182,199.01017)"><path
           d="M 59.469,192.262 V 19.73"
           style="fill:none;stroke:#000000;stroke-width:1.01734;stroke-linecap:butt;stroke-linejoin:miter;stroke-miterlimit:4;stroke-dasharray:none;stroke-opacity:1"
           id="path126" /></g><g
         id="g128"
         transform="matrix(0,-1,-1,0,-9.9580182,199.01017)"><path
           d="m 23.801,-59.469 2.035,-2.035 -7.121,2.035 7.121,2.031 z"
           style="fill:#000000;fill-opacity:1;fill-rule:evenodd;stroke:#000000;stroke-width:0.508669;stroke-linecap:butt;stroke-linejoin:miter;stroke-miterlimit:4;stroke-dasharray:none;stroke-opacity:1"
           id="path130" /></g><g
         id="g132"
         transform="matrix(1,0,0,-1,-9.9580182,199.01017)"><path
           d="m 60.609,127.227 c 13.528,4.335 23.286,8.277 34.782,20.554"
           style="fill:none;stroke:#000000;stroke-width:0.782567;stroke-linecap:butt;stroke-linejoin:miter;stroke-miterlimit:4;stroke-dasharray:none;stroke-opacity:1"
           id="path134" /></g><g
         id="g136"
         transform="matrix(1,-0.320419,-0.320419,-1,-9.9580182,199.01017)"><path
           d="m 94.917,97.77 1.491,-1.493 -5.218,1.492 5.216,1.489 z"
           style="fill:#000000;fill-opacity:1;fill-rule:evenodd;stroke:#000000;stroke-width:0.372623;stroke-linecap:butt;stroke-linejoin:miter;stroke-miterlimit:4;stroke-dasharray:none;stroke-opacity:1"
           id="path138" /></g><g
         id="g140"
         transform="matrix(-0.936408,1,1,0.936408,-9.9580182,199.01017)"><path
           d="m -124.046,-22.907 1.143,-1.141 -3.999,1.142 3.999,1.143 z"
           style="fill:#000000;fill-opacity:1;fill-rule:evenodd;stroke:#000000;stroke-width:0.285612;stroke-linecap:butt;stroke-linejoin:miter;stroke-miterlimit:4;stroke-dasharray:none;stroke-opacity:1"
           id="path142" /></g><g
         id="g144"
         transform="matrix(0.980559,-0.8994,-0.877734,-1,-9.9580182,199.01017)"><path
           d="m 152.62,5.038 c 3.088,7.59 -5.194,15.172 -18.508,16.943 -13.318,1.771 -26.632,-2.938 -29.758,-10.525 -3.122,-7.586 5.122,-15.181 18.431,-16.971 13.307,-1.792 26.644,2.899 29.804,10.479"
           style="fill:none;stroke:#000000;stroke-width:0.615686;stroke-linecap:butt;stroke-linejoin:miter;stroke-miterlimit:4;stroke-dasharray:none;stroke-opacity:1"
           id="path146" /></g><g
         id="g148"
         transform="matrix(0.980559,-0.8994,-0.877734,-1,-9.9580182,199.01017)"><path
           d="m 113.889,6.951 c 0.414,1.018 -0.695,2.035 -2.483,2.276 -1.788,0.237 -3.578,-0.391 -4,-1.41 -0.426,-1.019 0.675,-2.041 2.461,-2.284 1.785,-0.245 3.581,0.381 4.015,1.397"
           style="fill:none;stroke:#000000;stroke-width:0.377046;stroke-linecap:butt;stroke-linejoin:miter;stroke-miterlimit:4;stroke-dasharray:none;stroke-opacity:1"
           id="path150" /></g><g
         id="g152"
         transform="matrix(0.980559,-0.8994,-0.877734,-1,-9.9580182,199.01017)"><path
           d="m 118.937,0.462 c 0.415,1.021 -0.696,2.04 -2.484,2.277 -1.786,0.239 -3.576,-0.39 -4.002,-1.409 -0.424,-1.017 0.677,-2.038 2.461,-2.284 1.787,-0.243 3.583,0.38 4.015,1.397"
           style="fill:none;stroke:#000000;stroke-width:0.377046;stroke-linecap:butt;stroke-linejoin:miter;stroke-miterlimit:4;stroke-dasharray:none;stroke-opacity:1"
           id="path154" /></g><g
         id="g156"
         transform="matrix(0.980559,-0.8994,-0.877734,-1,-9.9580182,199.01017)"><path
           d="m 127.933,-2.211 c 0.414,1.018 -0.696,2.035 -2.484,2.276 -1.786,0.239 -3.577,-0.391 -3.999,-1.41 -0.424,-1.017 0.677,-2.039 2.461,-2.284 1.786,-0.243 3.58,0.381 4.015,1.397"
           style="fill:none;stroke:#000000;stroke-width:0.377046;stroke-linecap:butt;stroke-linejoin:miter;stroke-miterlimit:4;stroke-dasharray:none;stroke-opacity:1"
           id="path158" /></g><g
         id="g160"
         transform="matrix(0.980559,-0.8994,-0.877734,-1,-9.9580182,199.01017)"><path
           d="m 138.15,-1.865 c 0.416,1.02 -0.696,2.039 -2.484,2.276 -1.785,0.239 -3.575,-0.389 -4.001,-1.408 -0.422,-1.019 0.677,-2.039 2.461,-2.284 1.786,-0.243 3.582,0.379 4.015,1.396"
           style="fill:none;stroke:#000000;stroke-width:0.377046;stroke-linecap:butt;stroke-linejoin:miter;stroke-miterlimit:4;stroke-dasharray:none;stroke-opacity:1"
           id="path162" /></g><g
         id="g164"
         transform="matrix(0.980559,-0.8994,-0.877734,-1,-9.9580182,199.01017)"><path
           d="m 145.925,2.134 c 0.416,1.021 -0.694,2.038 -2.484,2.277 -1.786,0.239 -3.575,-0.39 -3.999,-1.411 -0.424,-1.017 0.677,-2.038 2.461,-2.284 1.786,-0.243 3.58,0.382 4.015,1.397"
           style="fill:none;stroke:#000000;stroke-width:0.377046;stroke-linecap:butt;stroke-linejoin:miter;stroke-miterlimit:4;stroke-dasharray:none;stroke-opacity:1"
           id="path166" /></g><g
         id="g168"
         transform="matrix(0.980559,-0.8994,-0.877734,-1,-9.9580182,199.01017)"><path
           d="m 148.229,8.98 c 0.415,1.021 -0.696,2.04 -2.484,2.277 -1.786,0.239 -3.576,-0.39 -4.002,-1.409 -0.424,-1.017 0.677,-2.038 2.463,-2.282 1.785,-0.245 3.581,0.378 4.013,1.395"
           style="fill:none;stroke:#000000;stroke-width:0.377046;stroke-linecap:butt;stroke-linejoin:miter;stroke-miterlimit:4;stroke-dasharray:none;stroke-opacity:1"
           id="path170" /></g><g
         id="g172"
         transform="matrix(0.980559,-0.8994,-0.877734,-1,-9.9580182,199.01017)"><path
           d="m 139.971,16.368 c 0.418,1.019 -0.694,2.038 -2.482,2.275 -1.788,0.241 -3.575,-0.39 -4.001,-1.409 -0.425,-1.017 0.677,-2.038 2.461,-2.284 1.786,-0.243 3.58,0.382 4.015,1.397"
           style="fill:none;stroke:#000000;stroke-width:0.377046;stroke-linecap:butt;stroke-linejoin:miter;stroke-miterlimit:4;stroke-dasharray:none;stroke-opacity:1"
           id="path174" /></g><g
         id="g176"
         transform="matrix(0.980559,-0.8994,-0.877734,-1,-9.9580182,199.01017)"><path
           d="m 128.665,16.876 c 0.414,1.018 -0.695,2.036 -2.483,2.277 -1.788,0.236 -3.578,-0.392 -4,-1.411 -0.424,-1.017 0.677,-2.039 2.462,-2.284 1.784,-0.245 3.58,0.382 4.015,1.397"
           style="fill:none;stroke:#000000;stroke-width:0.377046;stroke-linecap:butt;stroke-linejoin:miter;stroke-miterlimit:4;stroke-dasharray:none;stroke-opacity:1"
           id="path178" /></g><g
         id="g180"
         transform="matrix(0.980559,-0.8994,-0.877734,-1,-9.9580182,199.01017)"><path
           d="m 118.569,14.039 c 0.414,1.018 -0.696,2.036 -2.484,2.277 -1.786,0.239 -3.577,-0.392 -3.999,-1.411 -0.424,-1.017 0.677,-2.039 2.461,-2.284 1.784,-0.245 3.58,0.381 4.015,1.397"
           style="fill:none;stroke:#000000;stroke-width:0.377046;stroke-linecap:butt;stroke-linejoin:miter;stroke-miterlimit:4;stroke-dasharray:none;stroke-opacity:1"
           id="path182" /></g><g
         id="g184"
         transform="matrix(0.980559,-0.8994,-0.877734,-1,-9.9580182,199.01017)"><path
           d="m 125.118,6.34 c 0.416,1.02 -0.695,2.035 -2.483,2.276 -1.786,0.24 -3.576,-0.389 -4,-1.41 -0.424,-1.017 0.677,-2.039 2.461,-2.284 1.786,-0.243 3.58,0.381 4.013,1.399"
           style="fill:none;stroke:#000000;stroke-width:0.377046;stroke-linecap:butt;stroke-linejoin:miter;stroke-miterlimit:4;stroke-dasharray:none;stroke-opacity:1"
           id="path186" /></g><g
         id="g188"
         transform="matrix(0.980559,-0.8994,-0.877734,-1,-9.9580182,199.01017)"><path
           d="m 138.171,6.85 c 0.414,1.018 -0.698,2.038 -2.483,2.277 -1.786,0.239 -3.576,-0.39 -4.002,-1.409 -0.424,-1.017 0.677,-2.039 2.461,-2.284 1.786,-0.243 3.583,0.38 4.015,1.397"
           style="fill:none;stroke:#000000;stroke-width:0.377046;stroke-linecap:butt;stroke-linejoin:miter;stroke-miterlimit:4;stroke-dasharray:none;stroke-opacity:1"
           id="path190" /></g><g
         id="g192"
         transform="matrix(1,0,0,-1,-9.9580182,199.01017)"><path
           d="M 121.723,120.656 193.066,38.445"
           style="fill:none;stroke:#000000;stroke-width:1.01734;stroke-linecap:butt;stroke-linejoin:miter;stroke-miterlimit:4;stroke-dasharray:none;stroke-opacity:1"
           id="path194" /></g><g
         id="g196"
         transform="matrix(-0.867789,-1,-1,0.867789,-9.9580182,199.01017)"><path
           d="m -70.566,-129.162 1.535,-1.535 -5.379,1.535 5.379,1.535 z"
           style="fill:#000000;fill-opacity:1;fill-rule:evenodd;stroke:#000000;stroke-width:0.384182;stroke-linecap:butt;stroke-linejoin:miter;stroke-miterlimit:4;stroke-dasharray:none;stroke-opacity:1"
           id="path198" /></g><g
         id="g200"
         transform="matrix(1,0,0,-1,-9.9580182,199.01017)"><path
           d="M 59.324,192.531 106.16,137.988"
           style="fill:none;stroke:#000000;stroke-width:1.01734;stroke-linecap:butt;stroke-linejoin:miter;stroke-miterlimit:4;stroke-dasharray:none;stroke-opacity:1"
           id="path202" /></g><path
         d="m 42.674982,174.16997 h -0.356 c -0.07,-0.355 -0.129,-0.683 -0.254,-1.023 -0.074,-0.227 -0.117,-0.34 -0.937,-0.34 h -1.125 c 0.187,0.793 0.625,1.461 1.25,2.399 0.668,0.996 1.25,1.976 1.25,3.097 0,1.961 -1.902,3.535 -4.305,3.535 -2.426,0 -4.301,-1.605 -4.301,-3.535 0,-1.121 0.583,-2.101 1.25,-3.097 0.61,-0.938 1.063,-1.606 1.25,-2.399 h -1.136 c -0.813,0 -0.856,0.113 -0.926,0.324 -0.113,0.328 -0.184,0.696 -0.254,1.039 h -0.355 l 0.468,-2.289 h 2.258 c 0.313,0 0.356,0 0.356,0.301 0,0.992 -0.442,2.231 -0.766,3.137 -0.301,0.812 -0.699,1.933 -0.699,3 0,2.242 1.566,3.207 2.844,3.207 1.363,0 2.855,-1.008 2.855,-3.207 0,-1.067 -0.371,-2.133 -0.781,-3.297 -0.215,-0.598 -0.668,-1.859 -0.668,-2.84 0,-0.301 0.043,-0.301 0.367,-0.301 h 2.246 z"
         style="fill:#000000;fill-opacity:1;fill-rule:evenodd;stroke:none"
         id="path204" /><path
         d="m 73.846982,70.18597 v 0.195 l -0.012,0.098 v 0.098 l -0.027,0.179 -0.016,0.168 -0.043,0.168 -0.027,0.168 -0.043,0.141 -0.055,0.152 -0.055,0.125 -0.054,0.141 -0.059,0.113 -0.07,0.109 -0.082,0.114 -0.071,0.097 -0.082,0.098 -0.086,0.086 -0.082,0.07 -0.086,0.082 -0.097,0.071 -0.082,0.054 -0.098,0.059 -0.098,0.055 -0.097,0.043 -0.102,0.039 -0.109,0.027 -0.098,0.031 -0.097,0.028 -0.098,0.011 -0.098,0.016 -0.097,0.012 h -0.098 l -0.098,0.015 c -1.918,0 -3.746,-1.996 -3.746,-3.953 0,-1.285 0.836,-2.336 2.25,-2.336 l 0.028,0.293 c -0.825,0 -1.243,0.629 -1.243,1.524 0,0.671 0.364,2.179 0.793,2.879 0.66,1.019 1.414,1.285 1.903,1.285 1.371,0 1.371,-1.817 1.371,-2.907 0,-0.515 0,-1.312 0.027,-1.55 -1.219,-1.075 -2.293,-1.231 -2.851,-1.231 l -0.028,-0.293 c 0.879,0 1.871,0.309 2.934,1.16 0.183,-0.738 0.644,-1.16 1.273,-1.16 0.727,0 1.156,0.754 1.156,0.981 0,0.097 -0.082,0.136 -0.164,0.136 -0.097,0 -0.14,-0.039 -0.183,-0.136 -0.25,-0.688 -0.742,-0.688 -0.77,-0.688 -0.433,0 -0.433,1.09 -0.433,1.426 0,0.293 0,0.324 0.14,0.477 1.301,1.648 1.594,3.253 1.594,3.269 0,0.027 -0.016,0.141 -0.168,0.141 -0.141,0 -0.141,-0.043 -0.211,-0.293 -0.25,-0.867 -0.695,-1.93 -1.355,-2.754 z"
         style="fill:#000000;fill-opacity:1;fill-rule:evenodd;stroke:none"
         id="path206" /><path
         d="m 188.52198,157.66997 v 0.028 l 0.012,0.023 0.016,0.027 v 0.04 l 0.012,0.027 v 0.027 l 0.015,0.067 0.024,0.066 0.015,0.066 0.012,0.067 0.016,0.066 0.011,0.028 v 0.039 l 0.012,0.027 0.016,0.023 v 0.055 l 0.011,0.027 v 0.028 l 0.016,0.012 v 0.054 l 0.012,0.012 v 0.039 c 0,0.227 -0.16,0.359 -0.387,0.359 -0.039,0 -0.41,-0.015 -0.527,-0.476 l -1.899,-7.629 c -0.039,-0.16 -0.039,-0.188 -0.039,-0.211 0,-0.199 0.145,-0.359 0.371,-0.359 0.278,0 0.438,0.238 0.465,0.277 0.051,0.121 0.223,0.797 0.715,2.828 0.426,-0.359 1.023,-0.398 1.289,-0.398 0.926,0 1.43,0.582 1.75,0.953 0.117,-0.598 0.609,-0.953 1.191,-0.953 0.465,0 0.758,0.289 0.969,0.714 0.227,0.477 0.399,1.286 0.399,1.313 0,0.133 -0.118,0.133 -0.161,0.133 -0.132,0 -0.144,-0.067 -0.183,-0.238 -0.211,-0.864 -0.453,-1.645 -0.996,-1.645 -0.36,0 -0.399,0.344 -0.399,0.609 0,0.293 0.16,0.918 0.266,1.368 l 0.371,1.433 c 0.039,0.199 0.172,0.688 0.227,0.887 0.066,0.305 0.199,0.808 0.199,0.89 0,0.239 -0.188,0.356 -0.387,0.356 -0.062,0 -0.41,-0.012 -0.516,-0.461 l -0.625,-2.469 c -0.156,-0.664 -0.304,-1.207 -0.343,-1.34 -0.012,-0.066 -0.649,-1.273 -1.711,-1.273 -0.664,0 -0.981,0.437 -0.981,1.152 0,0.387 0.094,0.746 0.184,1.118 z"
         style="fill:#000000;fill-opacity:1;fill-rule:evenodd;stroke:none"
         id="path208" /><g
         id="g210"
         transform="matrix(1,0,0,-1,-9.9580182,199.01017)"><path
           d="M 168.047,105.52 C 131.75,158.656 87.52,154.016 52.238,156.504"
           style="fill:none;stroke:#000000;stroke-width:0.782567;stroke-linecap:butt;stroke-linejoin:miter;stroke-miterlimit:4;stroke-dasharray:3.13027, 1.56514;stroke-dashoffset:0;stroke-opacity:1"
           id="path212" /></g><g
         id="g214"
         transform="matrix(1,0.0705384,0.0705384,-1,-9.9580182,199.01017)"><path
           d="m 44.116,159.397 1.563,-1.562 -5.466,1.564 5.464,1.561 z"
           style="fill:#000000;fill-opacity:1;fill-rule:evenodd;stroke:#000000;stroke-width:0.390314;stroke-linecap:butt;stroke-linejoin:miter;stroke-miterlimit:4;stroke-dasharray:none;stroke-opacity:1"
           id="path216" /></g><g
         id="g218"
         transform="matrix(1,0,0,-1,-9.9580182,199.01017)"><path
           d="m 144.926,133.383 c -8.281,6.324 -13.207,10.055 -22.531,13.242"
           style="fill:none;stroke:#ff0000;stroke-width:0.7824;stroke-linecap:butt;stroke-linejoin:miter;stroke-miterlimit:4;stroke-dasharray:none;stroke-opacity:1"
           id="path220" /></g><g
         id="g222"
         transform="matrix(-1,-0.763752,-0.763752,1,-9.9580182,199.01017)"><path
           d="m -24.705,-154.15 1.244,-1.245 -4.352,1.243 4.351,1.244 z"
           style="fill:#ff0000;fill-opacity:1;fill-rule:evenodd;stroke:#ff0000;stroke-width:0.310896;stroke-linecap:butt;stroke-linejoin:miter;stroke-miterlimit:4;stroke-dasharray:none;stroke-opacity:1"
           id="path224" /></g><g
         id="g234"
         transform="matrix(1,0,0,-1,-9.9580182,199.01017)"><path
           d="m 138.992,125.492 c -8.277,6.32 -15.183,10.446 -24.508,13.637"
           style="fill:none;stroke:#ff0000;stroke-width:0.782567;stroke-linecap:butt;stroke-linejoin:miter;stroke-miterlimit:4;stroke-dasharray:none;stroke-opacity:1"
           id="path236" /></g><g
         id="g238"
         transform="matrix(-1,-0.763753,-0.763753,1,-9.9580182,199.01017)"><path
           d="m -24.764,-146.304 1.244,-1.245 -4.353,1.245 4.354,1.244 z"
           style="fill:#ff0000;fill-opacity:1;fill-rule:evenodd;stroke:#ff0000;stroke-width:0.310962;stroke-linecap:butt;stroke-linejoin:miter;stroke-miterlimit:4;stroke-dasharray:none;stroke-opacity:1"
           id="path240" /></g><g
         id="g242"
         transform="matrix(1,0,0,-1,-9.9580182,199.01017)"><path
           d="m 135.633,115.809 c -8.281,6.32 -19.531,13.609 -28.856,16.796"
           style="fill:none;stroke:#ff0000;stroke-width:0.782567;stroke-linecap:butt;stroke-linejoin:miter;stroke-miterlimit:4;stroke-dasharray:none;stroke-opacity:1"
           id="path244" /></g><g
         id="g246"
         transform="matrix(-1,-0.763753,-0.763753,1,-9.9580182,199.01017)"><path
           d="m -27.313,-138.568 1.244,-1.245 -4.354,1.246 4.355,1.243 z"
           style="fill:#ff0000;fill-opacity:1;fill-rule:evenodd;stroke:#ff0000;stroke-width:0.310962;stroke-linecap:butt;stroke-linejoin:miter;stroke-miterlimit:4;stroke-dasharray:none;stroke-opacity:1"
           id="path248" /></g><g
         id="g250"
         transform="matrix(1,0,0,-1,-9.9580182,199.01017)"><path
           d="m 127.527,108.691 c -8.277,6.325 -17.945,12.227 -27.269,15.414"
           style="fill:none;stroke:#ff0000;stroke-width:0.782567;stroke-linecap:butt;stroke-linejoin:miter;stroke-miterlimit:4;stroke-dasharray:none;stroke-opacity:1"
           id="path252" /></g><g
         id="g254"
         transform="matrix(-1,-0.763752,-0.763752,1,-9.9580182,199.01017)"><path
           d="m -25.628,-130.167 1.245,-1.241 -4.354,1.241 4.353,1.247 z"
           style="fill:#ff0000;fill-opacity:1;fill-rule:evenodd;stroke:#ff0000;stroke-width:0.310962;stroke-linecap:butt;stroke-linejoin:miter;stroke-miterlimit:4;stroke-dasharray:none;stroke-opacity:1"
           id="path256" /></g><g
         id="g258"
         transform="matrix(1,0,0,-1,-9.9580182,199.01017)"><path
           d="m 117.844,102.367 c -8.278,6.324 -13.203,10.055 -22.528,13.242"
           style="fill:none;stroke:#ff0000;stroke-width:0.782567;stroke-linecap:butt;stroke-linejoin:miter;stroke-miterlimit:4;stroke-dasharray:none;stroke-opacity:1"
           id="path260" /></g><g
         id="g262"
         transform="matrix(-1,-0.763753,-0.763753,1,-9.9580182,199.01017)"><path
           d="m -22.562,-121.501 1.244,-1.241 -4.354,1.241 4.353,1.246 z"
           style="fill:#ff0000;fill-opacity:1;fill-rule:evenodd;stroke:#ff0000;stroke-width:0.310962;stroke-linecap:butt;stroke-linejoin:miter;stroke-miterlimit:4;stroke-dasharray:none;stroke-opacity:1"
           id="path264" /></g></g><text
       xml:space="preserve"
       style="font-style:normal;font-weight:normal;font-size:7.99999px;line-height:1.25;font-family:sans-serif;letter-spacing:0px;word-spacing:0px;fill:#000000;fill-opacity:1;stroke:none;stroke-width:0.749999"
       x="37.327843"
       y="-169.82339"
       id="text12625-6"
       transform="scale(1,-1)"><tspan
         sodipodi:role="line"
         id="tspan12623-2"
         x="37.327843"
         y="-169.82339"
         style="font-size:7.99999px;stroke-width:0.749999">(Szary &amp; van Leeuwen 2017)</tspan></text><text
       xml:space="preserve"
       style="font-style:normal;font-weight:normal;font-size:7.99999px;line-height:1.25;font-family:sans-serif;letter-spacing:0px;word-spacing:0px;fill:#000000;fill-opacity:1;stroke:none;stroke-width:0.749999"
       x="221.50366"
       y="-170.57297"
       id="text12625-6-3"
       transform="scale(1,-1)"><tspan
         id="tspan12623-2-6"
         x="221.50366"
         y="-170.57297"
         style="font-size:7.99999px;stroke-width:0.749999"
         sodipodi:role="line">(Basu et al. 2020)</tspan></text><text
       xml:space="preserve"
       style="font-style:normal;font-weight:normal;font-size:11px;line-height:1.25;font-family:sans-serif;letter-spacing:0px;word-spacing:0px;fill:#000000;fill-opacity:1;stroke:none;stroke-width:0.749999"
       x="49.503269"
       y="-183.48265"
       id="text12625-6-7"
       transform="scale(1,-1)"><tspan
         sodipodi:role="line"
         id="tspan12623-2-5"
         x="49.503269"
         y="-183.48265"
         style="font-size:11px;stroke-width:0.749999">Modified Carousel</tspan></text><text
       xml:space="preserve"
       style="font-style:normal;font-weight:normal;font-size:11px;line-height:1.25;font-family:sans-serif;letter-spacing:0px;word-spacing:0px;fill:#000000;fill-opacity:1;stroke:none;stroke-width:0.749999"
       x="186.7175"
       y="-184.6516"
       id="text12625-6-7-3"
       transform="scale(1,-1)"><tspan
         sodipodi:role="line"
         x="186.7175"
         y="-184.6516"
         style="font-size:11px;stroke-width:0.749999"
         id="tspan1160">Lagging Behind Corotation</tspan></text></g></svg>
